<?xml version="1.0" encoding="utf-8"?>
<!-- Generator: Adobe Illustrator 19.0.0, SVG Export Plug-In . SVG Version: 6.00 Build 0)  -->
<svg version="1.1" xmlns="http://www.w3.org/2000/svg" xmlns:xlink="http://www.w3.org/1999/xlink" x="0px" y="0px"
	 viewBox="0 0 216 216" style="enable-background:new 0 0 216 216;" xml:space="preserve">
<style type="text/css">
	.st0{display:none;}
	.st1{display:inline;fill:#FFFFFF;stroke:#000000;stroke-miterlimit:10;}
	.st2{fill:none;stroke:#000000;stroke-miterlimit:10;}
</style>
<g id="Layer_1" class="st0">
	<path class="st1" d="M142.2,139.7"/>
	<rect x="64.1" y="3.9" class="st1" width="59.7" height="59.7"/>
	<rect x="77.7" y="3.9" class="st1" width="46.2" height="46.2"/>
	<path class="st1" d="M89.4,3.8h-8.8v43.3h43.2c0,0,0.3-43.2,0.1-43.2L64.1,63.6"/>
	<polyline class="st1" points="163.6,143.9 163.6,68.2 66.1,165.7 	"/>
	<line class="st1" x1="163.6" y1="68.2" x2="59.2" y2="68.2"/>
</g>
<g id="Layer_3">
	<g id="XMLID_2_">
		<g>
			<polygon points="197.2,13.7 197.2,142.8 170.9,142.8 95.6,54.5 95.6,142.8 68,142.8 68,13.7 95.2,13.7 170.9,103.3 170.9,13.7 
							"/>
		</g>
		<g>
			<polyline class="st2" points="95.6,142.8 68,142.8 68,13.7 95.2,13.7 170.9,103.3 170.9,13.7 197.2,13.7 197.2,142.8 
				170.9,142.8 95.6,54.5 			"/>
			<line class="st2" x1="95.6" y1="142.8" x2="95.6" y2="54.5"/>
		</g>
	</g>
</g>
<g id="Layer_2">
	<g id="XMLID_3_">
		<g>
			<polygon points="198.1,158.5 198.1,196 16,196 16,14 54.2,14 54.2,158.5 			"/>
		</g>
		<g>
			<polygon class="st2" points="16,14 16,196 198.1,196 198.1,158.5 54.2,158.5 54.2,14 			"/>
		</g>
	</g>
</g>
</svg>
